<?xml version="1.0" encoding="UTF-8"?>
<!DOCTYPE svg PUBLIC "-//W3C//DTD SVG 1.1//EN" "http://www.w3.org/Graphics/SVG/1.1/DTD/svg11.dtd">
<!-- Creator: CorelDRAW -->
<svg xmlns="http://www.w3.org/2000/svg" xml:space="preserve" width="2048px" height="2048px" style="shape-rendering:geometricPrecision; text-rendering:geometricPrecision; image-rendering:optimizeQuality; fill-rule:evenodd; clip-rule:evenodd"
viewBox="0 0 2048 2048"
 xmlns:xlink="http://www.w3.org/1999/xlink">
 <defs>
  <style type="text/css">
   <![CDATA[
    .fil2 {fill:none}
    .fil0 {fill:#424242}
    .fil1 {fill:#424242;fill-rule:nonzero}
   ]]>
  </style>
 </defs>
 <g id="Layer_x0020_1">
  <metadata id="CorelCorpID_0Corel-Layer"/>
  <g id="_293553712">
   <path id="_293554168" class="fil0" d="M433.526 457.52c-9.43938,0 -18.3484,3.73701 -25.0169,10.4067 -6.66969,6.66851 -10.4067,15.5788 -10.4067,25.0181l0 646.178c0,9.43938 3.73701,18.3496 10.4067,25.0181 6.66851,6.66969 15.5776,10.4067 25.0169,10.4067l1180.95 0c9.43938,0 18.3484,-3.73701 25.0169,-10.4067 6.66969,-6.66851 10.4067,-15.5788 10.4067,-25.0181l0 -646.178c0,-9.43938 -3.73701,-18.3496 -10.4067,-25.0181 -6.66851,-6.66969 -15.5776,-10.4067 -25.0169,-10.4067l-1180.95 0zm848.427 101.34l113.457 0 0 490.473 -269.224 0 0 43.402 -204.371 0 0 -43.402 -269.224 0 0 -490.473 113.458 0c40.3524,-13.9536 82.5142,-20.2795 125.296,-19.4551 45.0863,0.868111 89.6079,9.4819 132.656,22.598 43.0477,-13.1162 87.5705,-21.7299 132.656,-22.598 42.7819,-0.82441 84.9449,5.50158 125.297,19.4551z"/>
   <path id="_293553736" class="fil1" d="M1725.88 1540.48l-1403.76 0c-9.27639,0 -18.9992,-2.04449 -27.8693,-5.58189 -9.2882,-3.7063 -17.8252,-9.19371 -24.2374,-15.8788 -8.88072,-9.25867 -14.3291,-20.739 -14.3291,-33.7713 0,-5.43662 1.0748,-11.0823 3.3874,-16.8768l111.409 -279.218c2.1,-5.26536 4.54961,-10.4988 7.51654,-15.4949 2.65276,4.24843 5.77796,8.17205 9.30119,11.6953 11.8417,11.8417 28.2059,19.1929 46.2296,19.1929l1180.95 0c18.0236,0 34.3878,-7.35119 46.2296,-19.1929 3.52323,-3.52323 6.64843,-7.44686 9.30119,-11.6953 2.96693,4.99607 5.41536,10.2295 7.51654,15.4949l111.409 279.218c2.31378,5.79804 3.38859,11.4461 3.38859,16.8827 0,13.0323 -5.44607,24.5079 -14.3244,33.7677 -6.40867,6.68268 -14.9421,12.1677 -24.2292,15.8728 -8.87245,3.53977 -18.6036,5.58544 -27.8835,5.58544zm-845.573 -150.239c-15.8717,0 -28.7398,11.139 -28.7398,24.8788 0,13.7386 12.8681,24.8776 28.7398,24.8776l287.384 0c15.8705,0 28.7386,-11.139 28.7386,-24.8776 0,-13.7398 -12.8681,-24.8788 -28.7386,-24.8788l-287.384 0z"/>
  </g>
  <path class="fil1" d="M890.767 569.398c-41.9504,-0.807875 -83.5749,5.6315 -124.772,21.404l0 355.038 252.346 0 0 -354.193c-42.9237,-13.324 -85.4953,-21.4394 -127.575,-22.2496zm205.42 449.937l0 28.5579 0 14.8441 -14.8441 0 -114.685 0 -14.8441 0 0 -14.8441 0 -28.5579 -254.38 0 -14.8441 0 0 -14.8441 0 -400.787 0 -14.8441 14.8441 0 44.5323 0 9.27639 0 0 369.244 545.516 0 0 -369.244 9.27757 0 44.5311 0 14.8441 0 0 14.8441 0 400.787 0 14.8441 -14.8441 0 -254.38 0zm61.0465 -449.937c41.9516,-0.807875 83.576,5.6315 124.773,21.404l0 355.038 -252.346 0 0 -354.193c42.9225,-13.324 85.4953,-21.4394 127.573,-22.2496z"/>
 </g>
 <rect class="fil2" width="2048" height="2048"/>
</svg>
